<svg width="80" height="80" xmlns="http://www.w3.org/2000/svg">

 <g>
  <title>background</title>
  <rect fill="none" id="canvas_background" height="402" width="582" y="-1" x="-1"/>
 </g>
 <g>
  <title>Layer 1</title>
  <g id="svg_1">
   <path fill="#ff0f0f" id="svg_2" d="m45,29l0,-5.5l0,-7c0,-1.93 -1.57,-3.5 -3.5,-3.5c-0.612,0 -1.178,0.172 -1.679,0.448c-0.45,-1.414 -1.76,-2.448 -3.321,-2.448c-0.612,0 -1.178,0.172 -1.679,0.448c-0.45,-1.414 -1.76,-2.448 -3.321,-2.448s-2.871,1.034 -3.321,2.448c-0.501,-0.276 -1.067,-0.448 -1.679,-0.448c-1.93,0 -3.5,1.57 -3.5,3.5l0,1.601c-2.279,0.465 -4,2.484 -4,4.899l0,8c0,3.457 1.941,6.552 5,8.064l0,4.936l-1,0c-0.553,0 -1,0.448 -1,1l0,19c0,0.552 0.447,1 1,1l18,0c0.553,0 1,-0.448 1,-1l0,-19c0,-0.552 -0.447,-1 -1,-1l-1,0l0,-4.935c3.059,-1.513 5,-4.608 5,-8.065zm-3.5,-14c0.827,0 1.5,0.673 1.5,1.5l0,7c0,0.827 -0.673,1.5 -1.5,1.5s-1.5,-0.673 -1.5,-1.5l0,-7c0,-0.827 0.673,-1.5 1.5,-1.5zm-5,-2c0.827,0 1.5,0.673 1.5,1.5l0,2l0,7c0,0.827 -0.673,1.5 -1.5,1.5s-1.5,-0.673 -1.5,-1.5l0,-9c0,-0.827 0.673,-1.5 1.5,-1.5zm-6.5,-0.5c0,-0.827 0.673,-1.5 1.5,-1.5s1.5,0.673 1.5,1.5l0,2l0,9c0,0.827 -0.673,1.5 -1.5,1.5s-1.5,-0.673 -1.5,-1.5l0,-0.851c1.178,-0.564 2,-1.758 2,-3.149s-0.822,-2.585 -2,-3.149l0,-1.851l0,-2zm-2,11c0,0.827 -0.673,1.5 -1.5,1.5c-0.173,0 -0.341,-0.033 -0.5,-0.09l0,-1.91l2,0l0,0.5zm-1.5,-10.5c0.827,0 1.5,0.673 1.5,1.5l0,1.5l-3,0l0,-1.5c0,-0.827 0.673,-1.5 1.5,-1.5zm13.5,31l0,2l-16,0l0,-2l16,0zm-16,17l0,-13l16,0l0,13l-16,0zm2,-19l0,-5.582c0,-0.407 -0.247,-0.774 -0.625,-0.927c-2.657,-1.075 -4.375,-3.624 -4.375,-6.491l0,-8c0,-1.654 1.346,-3 3,-3l4.5,0c0.827,0 1.5,0.673 1.5,1.5s-0.673,1.5 -1.5,1.5l-3.5,0c-0.553,0 -1,0.448 -1,1l0,6c0,0.552 0.447,1 1,1c2.757,0 5,2.243 5,5l2,0c0,-3.521 -2.612,-6.442 -6,-6.929l0,-0.111c0.165,0.023 0.331,0.04 0.5,0.04c0.98,0 1.864,-0.407 2.5,-1.058c0.636,0.651 1.52,1.058 2.5,1.058s1.864,-0.407 2.5,-1.058c0.636,0.651 1.52,1.058 2.5,1.058s1.864,-0.407 2.5,-1.058c0.636,0.651 1.52,1.058 2.5,1.058c0.539,0 1.044,-0.133 1.5,-0.351l0,2.351c0,2.868 -1.718,5.416 -4.375,6.491c-0.378,0.153 -0.625,0.52 -0.625,0.927l0,5.582l-12,0z"/>
   <path fill="#ff0f0f" id="svg_3" d="m11,32l2,0c0,-7.526 -2.693,-14.606 -7.584,-19.936l-0.68,-0.74l-1.473,1.353l0.679,0.74c4.486,4.888 7.058,11.661 7.058,18.583z"/>
   <path fill="#ff0f0f" id="svg_4" d="m60.057,13.417l0.68,-0.74l-1.473,-1.353l-0.681,0.74c-4.89,5.33 -7.583,12.41 -7.583,19.936l2,0c0,-6.922 2.572,-13.695 7.057,-18.583z"/>
   <path fill="#ff0f0f" id="svg_5" d="m17,20.168c0,-5.776 2.094,-11.426 5.745,-15.5l-1.49,-1.335c-4.033,4.502 -6.255,10.481 -6.255,16.835l0,0.832l2,0l0,-0.832z"/>
   <path fill="#ff0f0f" id="svg_6" d="m47,21l2,0l0,-0.832c0,-6.354 -2.222,-12.333 -6.255,-16.835l-1.49,1.335c3.651,4.074 5.745,9.724 5.745,15.5l0,0.832z"/>
   <path fill="#ff0f0f" id="svg_7" d="m11,18l2,0l0,-0.397c0,-5.837 -1.793,-11.434 -5.187,-16.184l-1.626,1.162c3.148,4.409 4.813,9.604 4.813,15.022l0,0.397z"/>
   <path fill="#ff0f0f" id="svg_8" d="m53,17.603c0,-5.418 1.665,-10.612 4.813,-15.021l-1.627,-1.162c-3.393,4.749 -5.186,10.345 -5.186,16.183l0,0.397l2,0l0,-0.397z"/>
   <path fill="#ff0f0f" id="svg_9" d="m4,23l2,0l0,2l-2,0l0,-2z"/>
   <path fill="#ff0f0f" id="svg_10" d="m6,25l2,0l0,2l-2,0l0,-2z"/>
   <path fill="#ff0f0f" id="svg_11" d="m4,27l2,0l0,2l-2,0l0,-2z"/>
   <path fill="#ff0f0f" id="svg_12" d="m2,25l2,0l0,2l-2,0l0,-2z"/>
   <path fill="#ff0f0f" id="svg_13" d="m58,23l2,0l0,2l-2,0l0,-2z"/>
   <path fill="#ff0f0f" id="svg_14" d="m60,25l2,0l0,2l-2,0l0,-2z"/>
   <path fill="#ff0f0f" id="svg_15" d="m58,27l2,0l0,2l-2,0l0,-2z"/>
   <path fill="#ff0f0f" id="svg_16" d="m56,25l2,0l0,2l-2,0l0,-2z"/>
   <path fill="#ff0f0f" id="svg_17" d="m47,33l2,0l0,2l-2,0l0,-2z"/>
   <path fill="#ff0f0f" id="svg_18" d="m49,35l2,0l0,2l-2,0l0,-2z"/>
   <path fill="#ff0f0f" id="svg_19" d="m47,37l2,0l0,2l-2,0l0,-2z"/>
   <path fill="#ff0f0f" id="svg_20" d="m45,35l2,0l0,2l-2,0l0,-2z"/>
   <path fill="#ff0f0f" id="svg_21" d="m15,33l2,0l0,2l-2,0l0,-2z"/>
   <path fill="#ff0f0f" id="svg_22" d="m17,35l2,0l0,2l-2,0l0,-2z"/>
   <path fill="#ff0f0f" id="svg_23" d="m15,37l2,0l0,2l-2,0l0,-2z"/>
   <path fill="#ff0f0f" id="svg_24" d="m13,35l2,0l0,2l-2,0l0,-2z"/>
   <path fill="#ff0f0f" id="svg_25" d="m35,4l2,0l0,2l-2,0l0,-2z"/>
   <path fill="#ff0f0f" id="svg_26" d="m24,6l2,0l0,2l-2,0l0,-2z"/>
   <path fill="#ff0f0f" id="svg_27" d="m10.828,40.757c-2.469,2.469 -3.828,5.751 -3.828,9.243l2,0c0,-2.958 1.151,-5.738 3.242,-7.828l0.465,-0.464l-1.414,-1.415l-0.465,0.464z"/>
   <path fill="#ff0f0f" id="svg_28" d="m52.707,40.292l-1.414,1.415l0.465,0.464c2.091,2.091 3.242,4.871 3.242,7.829l2,0c0,-3.492 -1.359,-6.774 -3.828,-9.243l-0.465,-0.465z"/>
  </g>
 </g>
</svg>