<svg viewBox="0 0 512 512" width="64" height="64" xmlns="http://www.w3.org/2000/svg"><path d="m256 0c-141.386719 0-256 114.613281-256 256s114.613281 256 256 256 256-114.613281 256-256c-.160156-141.320312-114.679688-255.839844-256-256zm0 494.933594c-131.960938 0-238.933594-106.972656-238.933594-238.933594s106.972656-238.933594 238.933594-238.933594 238.933594 106.972656 238.933594 238.933594c-.152344 131.898438-107.035156 238.78125-238.933594 238.933594zm0 0"/><path d="m256 34.132812c-52.445312.042969-103.175781 18.691407-143.164062 52.625-.101563.085938-.144532.207032-.238282.300782s-.207031.109375-.300781.195312c-.265625.34375-.503906.710938-.714844 1.089844-.941406 1.371094-1.527343 2.949219-1.707031 4.601562.070312 1.078126.238281 2.148438.496094 3.199219.21875.5.484375.980469.792968 1.433594.1875.421875.410157.828125.664063 1.210937.09375.105469.214844.136719.308594.242188.09375.101562.109375.203125.195312.289062l69.375 68.871094c2.128907 2.324219 5.359375 3.289063 8.410157 2.507813 3.050781-.777344 5.421874-3.175781 6.175781-6.230469.75-3.058594-.242188-6.28125-2.585938-8.386719l-62.480469-62.035156c81.386719-62.9375 196.867188-55.574219 269.605469 17.183594 72.742188 72.757812 80.070313 188.242187 17.113281 269.613281l-53.570312-53.574219c-3.351562-3.234375-8.671875-3.1875-11.964844.105469-3.289062 3.289062-3.335937 8.613281-.101562 11.960938l60.414062 60.417968c.085938.082032.207032.109375.300782.195313.066406.09375.140624.183593.21875.273437.824218.476563 1.644531.957032 2.46875 1.433594.964843.382812 1.996093.585938 3.035156.597656 1.160156-.011718 2.304687-.257812 3.363281-.726562.339844-.195313.664063-.410156.972656-.648438.613281-.300781 1.1875-.679687 1.707031-1.125.09375-.09375.121094-.214844.203126-.308594.085937-.09375.199218-.121093.273437-.203124 55.820313-65.917969 68.292969-158.246094 31.964844-236.609376-36.332031-78.363281-114.855469-128.507812-201.230469-128.5zm0 0"/><path d="m402.933594 416.496094c-.054688-.535156-.164063-1.058594-.324219-1.570313-.230469-.53125-.515625-1.03125-.851563-1.503906-.179687-.394531-.390624-.773437-.632812-1.132813-.082031-.09375-.210938-.136718-.296875-.230468s-.121094-.222656-.222656-.316406l-78.898438-76.535157c-2.1875-2.132812-5.351562-2.9375-8.292969-2.109375-2.941406.828125-5.21875 3.164063-5.972656 6.125-.753906 2.964844.128906 6.105469 2.320313 8.238282l71.925781 69.742187c-81.371094 63.800781-197.574219 56.765625-270.65625-16.382813-73.082031-73.144531-80.011719-189.355468-16.140625-270.667968l54.128906 54.167968c2.140625 2.21875 5.3125 3.109376 8.296875 2.328126s5.3125-3.113282 6.09375-6.097657c.78125-2.980469-.109375-6.15625-2.328125-8.296875l-60.925781-60.929687c-.078125-.074219-.1875-.101563-.265625-.175781-.078125-.078126-.109375-.179688-.195313-.257813-.386718-.261719-.789062-.488281-1.210937-.683594-.460937-.332031-.953125-.617187-1.46875-.851562-.53125-.164063-1.078125-.273438-1.628906-.316407-.5-.109374-1.007813-.171874-1.519531-.1875-.5625.046876-1.117188.15625-1.65625.324219-.511719.085938-1.015626.222657-1.5.410157-.519532.265624-1.003907.589843-1.453126.964843-.394531.214844-.773437.460938-1.125.742188-.078124.074219-.101562.1875-.179687.261719-.078125.078124-.179687.121093-.257813.207031-75.3125 87.941406-70.257812 219.03125 11.609376 300.910156 81.863281 81.878906 212.957031 86.957031 300.910156 11.65625.101562-.085937.144531-.214844.246094-.308594.101562-.09375.214843-.117187.308593-.210937.261719-.347656.496094-.714844.699219-1.101563.359375-.445312.671875-.925781.929688-1.433593.328124-1.027344.566406-2.085938.707031-3.15625 0-.546876-.058594-1.089844-.171875-1.621094zm0 0"/><path d="m391.9375 168.3125c-.109375-.273438-.230469-.535156-.367188-.792969-.332031-.660156-.742187-1.273437-1.230468-1.828125-.179688-.203125-.332032-.417968-.519532-.597656-.6875-.667969-1.484374-1.214844-2.355468-1.613281l-.128906-.058594-76.644532-34.066406c-.0625 0-.128906 0-.199218 0-.613282-.214844-1.253907-.363281-1.902344-.433594-.453125-.132813-.917969-.226563-1.390625-.289063-.46875.042969-.933594.125-1.390625.246094-.632813.070313-1.257813.210938-1.859375.417969-.074219.011719-.148438.03125-.222657.050781l-76.636718 34.066406-.128906.058594c-.871094.398438-1.664063.941406-2.347657 1.613282-.1875.1875-.363281.386718-.527343.597656-.488282.550781-.898438 1.167968-1.230469 1.824218-.125.265626-.261719.511719-.367188.785157-.375.949219-.574219 1.953125-.597656 2.972656v27.644531l-22.132813-9.828125c-.070312 0-.136718 0-.207031-.050781-1.085937-.265625-2.179687-.488281-3.285156-.667969-.46875.046875-.933594.128907-1.390625.25-.632812.070313-1.257812.210938-1.859375.417969-.070313.011719-.144531.027344-.214844.050781l-76.644531 34.066407-.128906.058593c-.871094.394531-1.664063.941407-2.347656 1.613281-.1875.1875-.363282.386719-.527344.597657-.488282.550781-.898438 1.164062-1.230469 1.824219-.125.265624-.261719.511718-.367187.785156-.371094.945312-.574219 1.953125-.597657 2.96875v102.402344c.046875.367187.121094.734374.222657 1.089843-.007813 1.285157.453124 2.527344 1.296874 3.492188.257813.472656.5625.921875.90625 1.339843.539063.5 1.140626.925782 1.792969 1.269532.269531.21875.554688.421875.851563.605468l.128906.0625 76.644531 34.0625h.0625c.144531.0625.296875.070313.441407.121094.929687.367188 1.917968.570313 2.917968.597656h.085938c1-.027343 1.988281-.230468 2.917968-.597656.144532-.050781.300782-.058594.445313-.121094h.058594l76.648437-34.0625.125-.0625c.300782-.175781.585938-.378906.855469-.597656.652344-.347656 1.261719-.777344 1.808594-1.277344.339843-.417968.636719-.867187.894531-1.339843.332031-.4375.617188-.90625.855469-1.398438.226562-.675781.367187-1.375.417969-2.082031.113281-.359375.203124-.722656.265624-1.09375v-27.65625l22.132813 9.855469h.0625c.144531.058593.296875.066406.441406.121093.929688.367188 1.917969.570313 2.917969.59375h.085938c1-.023437 1.988281-.226562 2.917968-.59375.144532-.054687.300782-.0625.445313-.121093h.058593l76.648438-34.066407.125-.058593c.300781-.179688.585938-.378907.855469-.597657.652343-.347656 1.261719-.777343 1.808593-1.28125.339844-.417968.636719-.867187.894532-1.339843.332031-.433594.617187-.902344.855468-1.398438.226563-.671875.363282-1.371093.417969-2.082031.113281-.363281.203125-.734375.265625-1.109375v-102.398437c-.019531-1.015626-.222656-2.019532-.597656-2.960938zm-76.203125 42.664062 59.730469-26.546874v83.730468l-59.730469 26.546875zm-8.535156-64.476562 55.792969 24.796875-55.792969 24.773437-55.789063-24.796874zm-110.933594 59.734375 30.722656 13.652344.160157.070312 24.902343 11.089844-55.785156 24.757813-55.789063-24.796876zm68.269531 86.246094v35.414062l-59.734375 26.546875v-83.753906l59.734375-26.550781zm-136.535156-48.34375 59.734375 26.550781v83.726562l-59.734375-26.546874zm153.601562-13.128907c-.023437-1.3125-.355468-2.597656-.964843-3.757812-.328125-.65625-.742188-1.273438-1.230469-1.824219-.179688-.207031-.332031-.417969-.519531-.597656-.6875-.667969-1.484375-1.214844-2.355469-1.613281l-.128906-.058594-37.46875-16.648438v-22.101562l59.734375 26.546875v83.71875l-17.066407-7.59375zm0 0"/></svg>