<svg id="icons" enable-background="new 0 0 64 64" width="64" height="64" viewBox="0 0 64 64"  xmlns="http://www.w3.org/2000/svg"><g><path d="m32 0c-17.645 0-32 14.355-32 32s14.355 32 32 32 32-14.355 32-32-14.355-32-32-32zm0 62c-16.542 0-30-13.458-30-30s13.458-30 30-30 30 13.458 30 30-13.458 30-30 30z"/><path d="m52.506 11.494c-.019-.019-.044-.025-.064-.043-5.248-5.22-12.474-8.451-20.442-8.451-15.99 0-29 13.01-29 29 0 7.968 3.231 15.194 8.451 20.441.018.021.024.046.043.064s.044.025.064.043c5.248 5.221 12.474 8.452 20.442 8.452 15.99 0 29-13.01 29-29 0-7.968-3.231-15.194-8.451-20.441-.018-.021-.025-.046-.043-.065zm-20.506-6.494c7.085 0 13.537 2.747 18.359 7.227l-6.357 6.357-2-1.999v-3.588c0-.553-.447-1-1-1h-17.998c-.553 0-1 .447-1 1v3.584l-3.708 3.708c-.001 0-.001.002-.002.002l-.001.001c-.007.007-.009.017-.016.023-.082.087-.151.187-.198.298-.053.127-.078.261-.077.396v23.575l-5.775 5.775c-4.48-4.822-7.227-11.274-7.227-18.359 0-14.888 12.112-27 27-27zm-11.998 40.412 15.994-15.994v20.585h-15.994zm17.994-23.415h2.002v.591l-2.002 2.002zm1.415-2 1.587-1.588 1.588 1.588zm.591-4.002h-15.998v-1.998h15.998zm-16.584 2h15.167l-2.001 2.002h-15.168zm-3.416 4.002h15.994v4.593l-15.994 15.994zm17.994 5.421 2.002-2.002v21.171l-2.002 2.002zm3.002 20.997 1.589 1.588h-3.177zm1-1.828v-23.171l1.419-1.419h.581v26.589zm-9.998 12.413c-7.085 0-13.537-2.747-18.359-7.227l4.361-4.361v3.591c0 .553.447 1 1 1h17.994 8.002c.08 0 .15-.027.225-.045.052-.013.105-.012.156-.032.123-.051.234-.124.328-.218.007-.007.009-.017.016-.023.082-.087.151-.187.198-.299.053-.126.078-.26.077-.395v-29.984c.001-.135-.024-.27-.078-.396-.025-.063-.072-.11-.109-.165-.035-.052-.058-.11-.104-.156l-.291-.292 6.357-6.357c4.48 4.822 7.227 11.274 7.227 18.359 0 14.888-12.112 27-27 27z"/></g></svg>