<?xml version="1.0" encoding="iso-8859-1"?>
<!-- Generator: Adobe Illustrator 19.0.0, SVG Export Plug-In . SVG Version: 6.00 Build 0)  -->
<svg width="64" height="64" version="1.1" id="Capa_1" xmlns="http://www.w3.org/2000/svg" xmlns:xlink="http://www.w3.org/1999/xlink" x="0px" y="0px"
	 viewBox="0 0 512 512" style="enable-background:new 0 0 512 512;" xml:space="preserve">
<g>
	<g>
		<path d="M256,0C114.833,0,0,114.844,0,256s114.833,256,256,256s256-114.844,256-256S397.167,0,256,0z M256,490.667
			C126.604,490.667,21.333,385.396,21.333,256c0-60.866,23.488-116.212,61.628-157.956l118.77,118.77
			c-2.773,0.387-5.456,0.842-8.397,1.103c-14.729,1.313-28.646,6.531-42.521,15.948c-28.458,19.281-44.958,49.25-44.104,80.188
			c1.354,49.813,41.417,89.896,91.25,91.25c0.75,0.021,1.5,0.031,2.25,0.031c30.125,0,59.125-16.375,77.938-44.146
			c9.417-13.906,14.625-27.813,15.938-42.51c0.262-2.945,0.717-5.63,1.104-8.406l118.768,118.768
			C372.212,467.178,316.866,490.667,256,490.667z M276.96,292.043c-1.852,7.724-3.335,15.835-4.126,24.749
			c-0.979,10.99-5.021,21.604-12.354,32.438c-15.167,22.396-38.521,35.573-61.938,34.74c-38.5-1.042-69.458-32.01-70.5-70.5
			c-0.646-23.615,12.333-46.771,34.729-61.948c10.833-7.333,21.438-11.375,32.438-12.354c8.922-0.79,17.03-2.273,24.751-4.124
			L276.96,292.043z M242.573,227.49c3.681-1.677,7.281-3.44,10.656-5.469l33.229-19.938c5.313,0.458,13.604,2.135,17.458,5.99
			c4.021,4.021,5.542,12.5,5.979,17.49l-19.917,33.198c-2.029,3.381-3.79,6.984-5.467,10.668L242.573,227.49z M429.039,413.956
			L300.956,285.872c2.052-5.79,4.392-11.26,7.315-16.143l21.583-35.969c1-1.656,1.521-3.552,1.521-5.49
			c0-0.566-0.03-2.255-0.23-4.603l32.126-32.126c21.208,6.01,42.063-11.198,42.063-32.604c0-13.844-8.646-25.958-21.333-30.948
			c-5-12.688-17.104-21.323-30.938-21.323c-18.625,0-33.771,15.156-33.771,33.781c0,2.781,0.396,5.521,1.167,8.281l-32.044,32.128
			c-2.397-0.207-4.109-0.232-4.685-0.232c-1.938,0-3.833,0.521-5.479,1.521l-36,21.583c-4.868,2.928-10.332,5.267-16.118,7.319
			L98.044,82.961C139.788,44.822,195.134,21.333,256,21.333c129.396,0,234.667,105.271,234.667,234.667
			C490.667,316.866,467.178,372.212,429.039,413.956z M342.375,146.177c-1.188-2.208-1.75-4.031-1.75-5.729
			c0-6.865,5.583-12.448,12.438-12.448c5.896,0,10.75,4.292,11.833,10.427c0.771,4.427,4.229,7.896,8.667,8.677
			c6.146,1.073,10.438,5.938,10.438,11.833c0,6.854-5.583,12.438-12.438,12.438c-1.708,0-3.542-0.563-5.75-1.76
			c-4.146-2.24-9.292-1.49-12.625,1.844l-28.839,28.839c-1.48-2.604-3.167-5.124-5.349-7.307c-2.161-2.165-4.658-3.842-7.238-5.316
			l28.801-28.881C343.875,155.458,344.625,150.323,342.375,146.177z"/>
	</g>
</g>
<g>
</g>
<g>
</g>
<g>
</g>
<g>
</g>
<g>
</g>
<g>
</g>
<g>
</g>
<g>
</g>
<g>
</g>
<g>
</g>
<g>
</g>
<g>
</g>
<g>
</g>
<g>
</g>
<g>
</g>
</svg>
