<?xml version="1.0" encoding="iso-8859-1"?>
<!-- Generator: Adobe Illustrator 19.0.0, SVG Export Plug-In . SVG Version: 6.00 Build 0)  -->
<svg width="64" height="64" version="1.1" id="Capa_1" xmlns="http://www.w3.org/2000/svg" xmlns:xlink="http://www.w3.org/1999/xlink" x="0px" y="0px"
	 viewBox="0 0 512 512" style="enable-background:new 0 0 512 512;" xml:space="preserve">
<g>
	<g>
		<g>
			<path d="M256,0C114.833,0,0,114.844,0,256s114.833,256,256,256s256-114.844,256-256S397.167,0,256,0z M256,490.667
				C126.604,490.667,21.333,385.396,21.333,256c0-60.866,23.488-116.212,61.628-157.956l99.54,99.54
				c-5.996,7.534-11.258,15.676-14.751,24.842c-3.833,10.021-11.354,17.74-20.688,21.198c-37.75,13.979-62.542,50.385-61.708,90.583
				c0.479,23.292,15.146,67.99,15.771,69.885c1.063,3.208,3.563,5.729,6.792,6.781c1.875,0.625,46.604,15.292,69.896,15.771
				c0.667,0.01,1.313,0.021,1.979,0.021c39.396,0,74.833-24.604,88.583-61.729c3.458-9.323,11.167-16.865,21.188-20.677
				c0,0,0,0,0.021,0c9.163-3.5,17.302-8.764,24.833-14.76l99.539,99.539C372.212,467.178,316.866,490.667,256,490.667z M256,208
				c-9.368,0-18.053,2.805-25.451,7.466l-17.884-17.884c5.34-3.969,11.027-7.488,17.355-9.905
				c15.771-6.01,28.021-18.115,33.604-33.208c10.833-29.219,38.125-48.271,70.125-47.781c14.708,0.302,43.563,8.51,58.375,13.198
				c4.667,14.792,12.875,43.615,13.188,58.344c0.646,31.125-18.542,59.313-47.792,70.146c-15.083,5.583-27.188,17.833-33.188,33.594
				c-2.418,6.333-5.94,12.025-9.914,17.367l-17.885-17.885C301.195,274.053,304,265.37,304,256C304,229.531,282.458,208,256,208z
				 M246.366,231.283c3.004-1.174,6.219-1.949,9.634-1.949c14.708,0,26.667,11.958,26.667,26.667c0,3.415-0.775,6.63-1.949,9.634
				L246.366,231.283z M265.634,280.717c-3.004,1.174-6.219,1.949-9.634,1.949c-14.708,0-26.667-11.958-26.667-26.667
				c0-3.415,0.775-6.63,1.949-9.634L265.634,280.717z M215.466,230.549C210.805,237.947,208,246.63,208,256
				c0,26.469,21.542,48,48,48c9.368,0,18.053-2.805,25.451-7.466l17.884,17.884c-5.34,3.969-11.027,7.488-17.355,9.905
				c-15.771,6.01-28.021,18.115-33.604,33.208c-10.646,28.75-38.083,47.802-68.604,47.802c-0.5,0-1-0.01-1.521-0.021
				c-14.708-0.302-43.625-8.417-58.521-13.052c-4.625-14.865-12.729-43.76-13.042-58.49c-0.646-31.125,18.542-59.313,47.792-70.146
				c15.083-5.583,27.188-17.833,33.188-33.594c2.418-6.333,5.941-12.023,9.915-17.366L215.466,230.549z M429.039,413.956
				l-99.54-99.54c5.996-7.534,11.258-15.676,14.751-24.842c3.833-10.021,11.354-17.74,20.688-21.198
				c37.75-13.979,62.542-50.385,61.708-90.583c-0.479-23.313-15.313-67.875-15.938-69.76c-1.063-3.177-3.563-5.667-6.729-6.729
				c-1.896-0.635-46.458-15.469-69.792-15.948c-40.167-0.281-76.583,23.958-90.563,61.708c-3.458,9.323-11.167,16.865-21.208,20.677
				c-9.163,3.5-17.303,8.763-24.835,14.759L98.044,82.961C139.788,44.822,195.134,21.333,256,21.333
				c129.396,0,234.667,105.271,234.667,234.667C490.667,316.866,467.178,372.212,429.039,413.956z"/>
			<path d="M128,336c0,26.469,21.542,48,48,48s48-21.531,48-48s-21.542-48-48-48S128,309.531,128,336z M202.667,336
				c0,14.708-11.958,26.667-26.667,26.667S149.333,350.708,149.333,336c0-14.708,11.958-26.667,26.667-26.667
				S202.667,321.292,202.667,336z"/>
			<path d="M384,176c0-26.469-21.542-48-48-48c-26.458,0-48,21.531-48,48s21.542,48,48,48C362.458,224,384,202.469,384,176z
				 M309.333,176c0-14.708,11.958-26.667,26.667-26.667c14.708,0,26.667,11.958,26.667,26.667S350.708,202.667,336,202.667
				C321.292,202.667,309.333,190.708,309.333,176z"/>
		</g>
	</g>
</g>
<g>
</g>
<g>
</g>
<g>
</g>
<g>
</g>
<g>
</g>
<g>
</g>
<g>
</g>
<g>
</g>
<g>
</g>
<g>
</g>
<g>
</g>
<g>
</g>
<g>
</g>
<g>
</g>
<g>
</g>
</svg>
